<svg xmlns="http://www.w3.org/2000/svg" width="800" height="600" viewBox="0 0 800 600" fill="none">
  <defs>
    <linearGradient id="bg" x1="0" y1="0" x2="1" y2="1">
      <stop offset="0%" stop-color="#e0e7ff" />
      <stop offset="100%" stop-color="#f0f9ff" />
    </linearGradient>
  </defs>
  <rect width="800" height="600" rx="40" fill="url(#bg)" />
  <rect x="140" y="190" width="520" height="220" rx="28" fill="#ffffff" stroke="#1d4ed8" stroke-width="12" />
  <g fill="#1d4ed8" opacity="0.2">
    <rect x="190" y="235" width="60" height="40" rx="8" />
    <rect x="270" y="235" width="60" height="40" rx="8" />
    <rect x="350" y="235" width="60" height="40" rx="8" />
    <rect x="430" y="235" width="60" height="40" rx="8" />
    <rect x="510" y="235" width="60" height="40" rx="8" />
    <rect x="190" y="290" width="60" height="40" rx="8" />
    <rect x="270" y="290" width="60" height="40" rx="8" />
    <rect x="350" y="290" width="60" height="40" rx="8" />
    <rect x="430" y="290" width="60" height="40" rx="8" />
    <rect x="510" y="290" width="60" height="40" rx="8" />
    <rect x="230" y="345" width="340" height="32" rx="10" />
  </g>
</svg>
