<svg xmlns="http://www.w3.org/2000/svg" width="400" height="300" viewBox="0 0 400 300" fill="none"><rect width="400" height="300" fill="#0d1117"/><path d="M200 90 C175 90 160 110 160 140 C160 170 175 210 190 210 C195 210 198 205 200 195 C202 205 205 210 210 210 C225 210 240 170 240 140 C240 110 225 90 200 90 Z" fill="none" stroke="#58a6ff" stroke-width="2"/><path d="M200 90 C175 90 160 110 160 140 C160 170 175 210 190 210 C195 210 198 205 200 195 C202 205 205 210 210 210 C225 210 240 170 240 140 C240 110 225 90 200 90 Z" fill="#58a6ff" opacity="0.08"/><line x1="200" y1="100" x2="200" y2="190" stroke="#58a6ff" stroke-width="1.5" opacity="0.3"/><path d="M200 120 Q190 120 190 135" fill="none" stroke="#58a6ff" stroke-width="1.5" opacity="0.3"/><path d="M200 120 Q210 120 210 135" fill="none" stroke="#58a6ff" stroke-width="1.5" opacity="0.3"/><circle cx="200" cy="75" r="8" fill="none" stroke="#58a6ff" stroke-width="1.5" opacity="0.4"/><path d="M155 230 Q200 245 245 230" fill="none" stroke="#58a6ff" stroke-width="2" stroke-linecap="round" opacity="0.4"/><path d="M165 235 Q200 248 235 235" fill="none" stroke="#58a6ff" stroke-width="1.5" stroke-linecap="round" opacity="0.25"/></svg>